<svg xmlns="http://www.w3.org/2000/svg" x="0" y="0" width="180" height="50" viewBox="0 0 180 50">
<g id="logo">
    <path class="logo-symbol green" fill="#00B19D" d="M55.4 36.3c0 0-14 6.7-29.5 3.1 -9.4-2.2-22.9-9.9-22.9-9.9l14-18.6c0 0 6.7 10.5 14.9 16.9C46.1 38.9 55.4 36.3 55.4 36.3M50.7 33.8c0 0-6.5-2.7-9.7-15.4C39.1 11 40 2 40 2L23.6 6.4c0 0 4.3 10.5 8.7 16C39.6 31.4 50.7 33.8 50.7 33.8M49.1 29.8c0 0-2.1-4.3 1.9-12.2 2.3-4.6 6.8-8.8 6.8-8.8l-10.3-5.1c0 0-2.5 7.2-2.7 12C44.6 23.6 49.1 29.8 49.1 29.8M50.4 25.8c0 0 0.9-2.6 5.8-4.2 2.8-0.9 6.4-0.8 6.4-0.8l-2.2-6.3c0 0-4 2-6 3.8C51.1 21.4 50.4 25.8 50.4 25.8" />
    <path class="logo-text"  fill="#617B8A" d="M93 36.8h2.5V7.4h-2.5V36.8zM150.2 20.8v-3.3h-2.5v19.3h2.6V26.1c0-2 0.4-3.3 2-4.6 1.1-0.9 2.1-1.2 3.5-1.3V17.6C153.3 17.8 151.5 18.4 150.2 20.8M118.5 23.6c-1.4-3.9-5.2-6.5-9.4-6.5 -5.6 0-10 4.6-10 10.1s4.5 10.1 10 10.1c3.9 0 7.6-2.4 9.2-6h-2.8c-1.3 2.2-3.9 3.8-6.4 3.8 -3.8 0-7.2-3.2-7.4-7h17.5C119.1 26.5 119.1 25.1 118.5 23.6M101.7 25.9c0.6-3.7 3.6-6.6 7.4-6.6 3.9 0 6.6 3 7.4 6.6H101.7zM86.3 20.6c-1.5-1.9-4.5-3.5-7.6-3.5 -5.7 0-10.4 4.3-10.4 10.1 0 5.7 4.7 10.1 10.4 10.1 3.2 0 5.7-1.3 7.6-3.8v3.4h2.5v-9.3h0c0-0.1 0-0.2 0-0.3C88.8 24.6 87.9 22.3 86.3 20.6M78.7 35.1c-4.3 0-7.9-3.6-7.9-7.9 0-4.3 3.6-7.9 7.9-7.9 4.3 0 7.6 3.7 7.6 7.9C86.3 31.4 83 35.1 78.7 35.1M177.4 27.2c0-2.6-0.9-4.9-2.5-6.6 -1.5-1.9-4.5-3.5-7.6-3.5 -5.7 0-10.4 4.3-10.4 10.1 0 5.7 4.7 10.1 10.4 10.1 3.2 0 5.7-1.3 7.6-3.8v3.4h2.5v-9.3h0C177.4 27.4 177.4 27.3 177.4 27.2M167.3 35.1c-4.3 0-7.9-3.6-7.9-7.9 0-4.3 3.6-7.9 7.9-7.9 4.3 0 7.6 3.7 7.6 7.9C174.9 31.4 171.5 35.1 167.3 35.1M140.6 20.5c-1.4-2-4.5-3.4-7.7-3.4 -5.6 0-9.9 4.8-9.9 10.2 0 5.5 4.5 10 10 10 3 0 6.3-1.4 7.5-4.3v4.3c0 4.1-3 7-7.2 7 -1.6 0-3.3-0.5-4.6-1.5 -1.1-0.8-1.9-2.2-2.6-3.4h-2.5c0.4 1.1 0.7 1.9 1.3 2.9 1.8 2.6 5 4.2 8.2 4.2 3 0 6.1-1.3 8.1-3.6 1.6-2 1.8-3.6 1.8-6.2v-9.4C143.1 24.8 142.2 22.4 140.6 20.5M133.1 35.1c-4.4 0-7.6-3.7-7.6-8 0-4.2 3.1-7.8 7.4-7.8 4.3 0 7.7 3.6 7.7 7.8C140.6 31.3 137.4 35.1 133.1 35.1"/>
</g>
</svg>